<?xml version="1.0" standalone="no"?>
<!DOCTYPE svg PUBLIC "-//W3C//DTD SVG 20010904//EN"
 "http://www.w3.org/TR/2001/REC-SVG-20010904/DTD/svg10.dtd">
<svg version="1.0" xmlns="http://www.w3.org/2000/svg"
 width="540.000000pt" height="540.000000pt" viewBox="0 0 540.000000 540.000000"
 preserveAspectRatio="xMidYMid meet">

<g transform="translate(0.000000,540.000000) scale(0.100000,-0.100000)"
fill="#000000" stroke="none">
<path d="M2515 5354 c-16 -2 -93 -11 -170 -20 -77 -9 -143 -18 -146 -20 -3 -2
-50 -13 -105 -25 -101 -22 -325 -92 -411 -129 -111 -48 -340 -168 -419 -220
-91 -60 -96 -64 -218 -155 -74 -55 -293 -264 -364 -347 -96 -113 -232 -305
-299 -422 -48 -85 -153 -305 -153 -320 0 -6 -4 -16 -8 -21 -12 -14 -45 -109
-82 -235 -112 -382 -134 -802 -64 -1195 60 -333 178 -640 358 -935 22 -35 46
-71 53 -79 8 -9 31 -42 52 -74 50 -76 79 -109 91 -102 5 3 8 0 5 -7 -2 -7 2
-22 11 -33 13 -17 16 -18 25 -5 9 12 10 12 5 -4 -5 -14 14 -41 71 -104 177
-195 477 -424 717 -548 709 -364 1527 -399 2251 -95 76 33 267 129 302 152 23
16 44 29 47 29 9 0 160 103 236 160 142 108 355 314 450 436 78 100 198 270
213 304 4 8 23 42 42 75 57 98 129 250 170 360 130 347 187 712 166 1062 -19
305 -66 523 -188 861 -43 118 -262 512 -285 512 -4 0 -8 5 -8 11 0 30 -237
312 -256 305 -8 -3 -11 0 -8 8 8 21 -153 167 -371 334 -5 4 -28 19 -50 32 -22
13 -42 27 -45 30 -12 15 -211 126 -313 175 -252 119 -495 191 -787 231 -110
15 -452 27 -515 18z m-898 -290 c-3 -3 -12 -4 -19 -1 -8 3 -5 6 6 6 11 1 17
-2 13 -5z m2181 -246 l2 -218 -435 0 c-239 0 -734 0 -1100 0 -366 0 -669 0
-675 0 -6 0 -10 80 -10 220 l0 220 1108 -2 1107 -3 3 -217z m-275 -275 c-24
-2 -62 -2 -85 0 -24 2 -5 4 42 4 47 0 66 -2 43 -4z m180 0 c-13 -2 -33 -2 -45
0 -13 2 -3 4 22 4 25 0 35 -2 23 -4z m635 -700 l-3 -678 -677 -3 -678 -2 0
680 0 680 680 0 680 0 -2 -677z m-3658 547 c0 -5 -5 -10 -11 -10 -5 0 -7 5 -4
10 3 6 8 10 11 10 2 0 4 -4 4 -10z m800 -1475 l0 -1475 -280 0 -280 0 0 1475
0 1475 280 0 280 0 0 -1475z m-716 1215 c-6 -6 -10 -3 -10 10 0 13 4 16 10 10
7 -7 7 -13 0 -20z m-104 -160 c0 -5 -2 -10 -4 -10 -3 0 -8 5 -11 10 -3 6 -1
10 4 10 6 0 11 -4 11 -10z m1910 -14 c0 -3 -4 -8 -10 -11 -5 -3 -10 -1 -10 4
0 6 5 11 10 11 6 0 10 -2 10 -4z m-1960 -516 c0 -5 -2 -10 -4 -10 -3 0 -8 5
-11 10 -3 6 -1 10 4 10 6 0 11 -4 11 -10z m3760 -164 c0 -3 -4 -8 -10 -11 -5
-3 -10 -1 -10 4 0 6 5 11 10 11 6 0 10 -2 10 -4z m180 -1 c0 -2 -10 -9 -22
-15 -22 -11 -22 -10 -4 4 21 17 26 19 26 11z m50 -14 c0 -8 -53 -32 -69 -31
-5 1 59 38 67 40 1 0 2 -4 2 -9z m-218 -14 c-12 -7 -20 -16 -17 -19 4 -3 2 -9
-3 -12 -6 -3 -9 0 -8 6 3 23 17 38 34 38 13 -1 12 -4 -6 -13z m518 9 c0 -3 -4
-8 -10 -11 -5 -3 -10 -1 -10 4 0 6 5 11 10 11 6 0 10 -2 10 -4z m60 -6 c0 -5
-5 -10 -11 -10 -5 0 -7 5 -4 10 3 6 8 10 11 10 2 0 4 -4 4 -10z m-260 -4 c0
-3 -4 -8 -10 -11 -5 -3 -10 -1 -10 4 0 6 5 11 10 11 6 0 10 -2 10 -4z m115 -9
c-23 -16 -55 -28 -55 -22 0 6 53 34 65 35 5 0 1 -6 -10 -13z m351 -22 c-16
-14 -34 -25 -40 -25 -6 0 5 14 24 29 42 35 56 31 16 -4z m-496 15 c0 -5 -5
-10 -11 -10 -5 0 -7 5 -4 10 3 6 8 10 11 10 2 0 4 -4 4 -10z m380 -5 c-7 -8
-18 -15 -24 -15 -6 0 -2 7 8 15 25 19 32 19 16 0z m80 10 c0 -2 -15 -12 -32
-20 l-33 -16 25 20 c24 20 40 26 40 16z m-705 -26 c11 -16 1 -19 -13 -3 -7 8
-8 14 -3 14 5 0 13 -5 16 -11z m205 1 c-12 -8 -10 -10 10 -10 23 -1 23 -2 6
-11 -14 -9 -20 -8 -26 1 -4 7 -14 9 -21 6 -8 -4 -5 0 5 8 11 9 25 16 30 16 6
0 4 -5 -4 -10z m77 4 c-3 -3 -12 -4 -19 -1 -8 3 -5 6 6 6 11 1 17 -2 13 -5z
m114 -9 c-18 -8 -36 -15 -40 -15 -13 1 45 29 59 29 8 0 0 -6 -19 -14z m69 5
c-8 -5 -19 -10 -25 -10 -5 0 -3 5 5 10 8 5 20 10 25 10 6 0 3 -5 -5 -10z m70
5 c0 -2 -10 -9 -22 -15 -22 -11 -22 -10 -4 4 21 17 26 19 26 11z m36 -20 c-11
-8 -25 -15 -30 -15 -6 1 0 7 14 15 32 19 40 18 16 0z m214 5 c-8 -5 -19 -10
-25 -10 -5 0 -3 5 5 10 8 5 20 10 25 10 6 0 3 -5 -5 -10z m-101 -14 c-2 -2
-15 -9 -29 -15 -24 -11 -24 -11 -6 3 16 13 49 24 35 12z m117 -11 c-11 -8 -24
-15 -30 -15 -5 0 -1 7 10 15 10 8 24 14 29 14 6 0 1 -6 -9 -14z m-571 -5 c-27
-12 -43 -12 -25 0 8 5 22 9 30 9 10 0 8 -3 -5 -9z m255 -10 c-8 -5 -19 -10
-25 -10 -5 0 -3 5 5 10 8 5 20 10 25 10 6 0 3 -5 -5 -10z m-3263 -22 c-3 -8
-6 -5 -6 6 -1 11 2 17 5 13 3 -3 4 -12 1 -19z m3163 12 c-8 -5 -19 -10 -25
-10 -5 0 -3 5 5 10 8 5 20 10 25 10 6 0 3 -5 -5 -10z m-388 -29 c-9 -16 -18
-28 -21 -26 -4 5 27 55 34 55 2 0 -4 -13 -13 -29z m83 11 c-11 -9 -21 -30 -23
-46 -3 -43 -12 -45 -12 -4 0 26 6 40 23 51 30 21 37 21 12 -1z m500 8 c-3 -5
-12 -10 -18 -10 -7 0 -6 4 3 10 19 12 23 12 15 0z m-1795 -21 c-7 -11 -14 -18
-17 -15 -8 8 5 36 17 36 7 0 7 -6 0 -21z m620 11 c0 -5 -5 -10 -11 -10 -5 0
-7 5 -4 10 3 6 8 10 11 10 2 0 4 -4 4 -10z m70 1 c0 -5 -7 -11 -14 -14 -10 -4
-13 -1 -9 9 6 15 23 19 23 5z m48 -25 c-6 -19 -22 -47 -35 -63 l-25 -28 21 32
c12 17 21 33 21 36 0 11 20 57 24 57 2 0 -1 -15 -6 -34z m133 3 c-9 -22 -10
-22 -10 -3 -1 11 2 24 6 27 12 12 14 0 4 -24z m279 21 c0 -5 -5 -10 -11 -10
-5 0 -7 5 -4 10 3 6 8 10 11 10 2 0 4 -4 4 -10z m470 -10 c-24 -15 -37 -11
-16 5 11 8 22 12 25 9 3 -3 -1 -9 -9 -14z m-277 -5 c-3 -9 -8 -14 -10 -11 -3
3 -2 9 2 15 9 16 15 13 8 -4z m147 11 c0 -2 -7 -7 -16 -10 -8 -3 -12 -2 -9 4
6 10 25 14 25 6z m60 -6 c0 -5 -5 -10 -11 -10 -7 0 -9 -9 -6 -21 4 -15 3 -19
-5 -11 -11 11 -2 52 13 52 5 0 9 -4 9 -10z m135 0 c-3 -5 -12 -10 -18 -10 -7
0 -6 4 3 10 19 12 23 12 15 0z m70 0 c-3 -5 -11 -10 -16 -10 -6 0 -7 5 -4 10
3 6 11 10 16 10 6 0 7 -4 4 -10z m135 0 c-8 -5 -19 -10 -25 -10 -5 0 -3 5 5
10 8 5 20 10 25 10 6 0 3 -5 -5 -10z m-1568 -22 c-7 -7 -12 -8 -12 -2 0 6 3
14 7 17 3 4 9 5 12 2 2 -3 -1 -11 -7 -17z m475 0 c-3 -8 -6 -5 -6 6 -1 11 2
17 5 13 3 -3 4 -12 1 -19z m134 -11 c-8 -8 -11 -7 -11 4 0 20 13 34 18 19 3
-7 -1 -17 -7 -23z m1007 13 c-7 -11 -16 -20 -20 -20 -5 0 -3 9 4 20 7 11 16
20 20 20 5 0 3 -9 -4 -20z m-1277 -23 c-10 -9 -11 -8 -5 6 3 10 9 15 12 12 3
-3 0 -11 -7 -18z m329 -37 c-17 -32 -20 -20 -7 23 9 28 13 33 15 18 2 -11 -2
-30 -8 -41z m147 38 c-3 -8 -6 -5 -6 6 -1 11 2 17 5 13 3 -3 4 -12 1 -19z
m333 12 c0 -5 -4 -10 -10 -10 -5 0 -10 5 -10 10 0 6 5 10 10 10 6 0 10 -4 10
-10z m403 -20 c14 -23 16 -34 7 -47 -9 -16 -10 -15 -5 5 4 13 2 22 -5 22 -6 0
-8 5 -5 10 3 6 2 10 -3 10 -6 0 -12 7 -16 15 -10 26 9 16 27 -15z m-1923 -11
c-12 -16 -24 -28 -27 -26 -4 5 37 57 44 57 3 0 -5 -14 -17 -31z m1458 -5 c-3
-14 -5 -12 -10 9 -3 19 -2 25 4 19 6 -6 8 -18 6 -28z m342 -8 c0 -6 -7 -1 -15
10 -8 10 -15 23 -15 28 0 6 7 1 15 -10 8 -10 15 -23 15 -28z m-1209 11 c-10
-9 -11 -8 -5 6 3 10 9 15 12 12 3 -3 0 -11 -7 -18z m629 7 c0 -8 -5 -12 -10
-9 -6 4 -8 11 -5 16 9 14 15 11 15 -7z m40 -5 c0 -6 -4 -7 -10 -4 -5 3 -10 11
-10 16 0 6 5 7 10 4 6 -3 10 -11 10 -16z m612 -33 c-3 -5 -9 -1 -13 10 -12 31
-10 39 5 19 8 -11 12 -24 8 -29z m-1486 -4 c-16 -15 -25 -21 -21 -13 12 21 39
48 44 44 3 -2 -8 -16 -23 -31z m104 34 c0 -3 -4 -8 -10 -11 -5 -3 -10 -1 -10
4 0 6 5 11 10 11 6 0 10 -2 10 -4z m140 0 c0 -2 -8 -10 -17 -17 -16 -13 -17
-12 -4 4 13 16 21 21 21 13z m970 -6 c0 -5 -5 -10 -11 -10 -5 0 -7 5 -4 10 3
6 8 10 11 10 2 0 4 -4 4 -10z m-1260 -3 c0 -2 -10 -12 -22 -23 l-23 -19 19 23
c18 21 26 27 26 19z m476 -24 c-10 -10 -19 5 -10 18 6 11 8 11 12 0 2 -7 1
-15 -2 -18z m137 5 c-11 -13 -23 -30 -26 -38 -5 -13 -6 -13 -6 0 -1 18 29 60
43 60 5 0 0 -10 -11 -22z m287 12 c0 -5 -5 -10 -11 -10 -5 0 -7 5 -4 10 3 6 8
10 11 10 2 0 4 -4 4 -10z m-980 -4 c0 -2 -8 -10 -17 -17 -16 -13 -17 -12 -4 4
13 16 21 21 21 13z m263 -21 c-3 -9 -8 -14 -10 -11 -3 3 -2 9 2 15 9 16 15 13
8 -4z m901 -7 c-10 -13 -20 -25 -21 -27 -2 -2 -3 1 -3 7 0 11 27 42 37 42 3 0
-2 -10 -13 -22z m-834 -2 c0 -8 -7 -16 -15 -20 -12 -4 -13 -2 -2 14 14 24 17
25 17 6z m1120 4 c0 -5 -5 -10 -11 -10 -5 0 -7 5 -4 10 3 6 8 10 11 10 2 0 4
-4 4 -10z m131 -9 c-10 -6 -10 -17 -3 -45 6 -20 7 -34 2 -31 -16 10 -22 65 -9
81 6 8 14 12 18 9 3 -3 0 -10 -8 -14z m-1829 -13 c-7 -7 -12 -8 -12 -2 0 6 3
14 7 17 3 4 9 5 12 2 2 -3 -1 -11 -7 -17z m73 3 c-3 -6 -11 -11 -17 -11 -6 0
-6 6 2 15 14 17 26 13 15 -4z m919 4 c-7 -16 -24 -21 -24 -6 0 8 7 13 27 20 1
1 0 -6 -3 -14z m63 -7 c-3 -8 -6 -5 -6 6 -1 11 2 17 5 13 3 -3 4 -12 1 -19z
m83 18 c0 -2 -7 -7 -16 -10 -8 -3 -12 -2 -9 4 6 10 25 14 25 6z m754 -11 c-4
-9 -1 -29 6 -45 7 -16 10 -35 7 -42 -2 -7 -10 7 -16 31 -11 39 -10 71 3 71 3
0 3 -7 0 -15z m-2104 0 c0 -2 -9 -9 -20 -15 -12 -6 -20 -7 -20 -1 0 5 8 12 18
14 9 3 18 5 20 6 1 0 2 -1 2 -4z m1550 -5 c0 -5 -4 -10 -10 -10 -5 0 -10 5
-10 10 0 6 5 10 10 10 6 0 10 -4 10 -10z m127 -12 c-3 -8 -6 -5 -6 6 -1 11 2
17 5 13 3 -3 4 -12 1 -19z m140 0 c-3 -8 -6 -5 -6 6 -1 11 2 17 5 13 3 -3 4
-12 1 -19z m-199 -635 l2 -623 -800 0 -800 0 0 624 0 623 798 -1 797 -1 3
-622z m69 585 c-3 -7 -5 -2 -5 12 0 14 2 19 5 13 2 -7 2 -19 0 -25z m143 2 c0
-16 -4 -30 -8 -30 -5 0 -7 14 -4 30 2 17 6 30 8 30 2 0 4 -13 4 -30z m355 10
c3 -5 1 -10 -4 -10 -6 0 -11 5 -11 10 0 6 2 10 4 10 3 0 8 -4 11 -10z m-2309
-25 c-23 -17 -36 -19 -36 -6 0 5 10 12 23 14 12 2 24 5 27 5 3 1 -4 -5 -14
-13z m44 -20 c-19 -14 -36 -25 -39 -25 -10 1 53 50 63 50 6 0 -5 -11 -24 -25z
m2274 10 c-4 -8 -8 -15 -10 -15 -2 0 -4 7 -4 15 0 8 4 15 10 15 5 0 7 -7 4
-15z m-2194 -9 c0 -3 -4 -8 -10 -11 -5 -3 -10 -1 -10 4 0 6 5 11 10 11 6 0 10
-2 10 -4z m1675 -6 c3 -5 4 -10 1 -10 -2 0 -12 -3 -20 -6 -12 -5 -15 -2 -10
10 7 18 20 21 29 6z m205 -14 c0 -3 -4 -8 -10 -11 -5 -3 -10 -1 -10 4 0 6 5
11 10 11 6 0 10 -2 10 -4z m150 1 c0 -2 -10 -12 -21 -23 -22 -19 -22 -19 -10
4 10 18 31 31 31 19z m-2070 -12 c0 -2 -10 -10 -22 -16 -21 -11 -22 -11 -9 4
13 16 31 23 31 12z m1740 -10 c-7 -8 -20 -15 -28 -15 -13 0 -12 3 4 15 25 19
40 19 24 0z m451 -8 c-10 -9 -11 -8 -5 6 3 10 9 15 12 12 3 -3 0 -11 -7 -18z
m-2281 9 c0 -2 -8 -10 -17 -17 -16 -13 -17 -12 -4 4 13 16 21 21 21 13z m1890
-6 c0 -5 -5 -10 -11 -10 -5 0 -7 5 -4 10 3 6 8 10 11 10 2 0 4 -4 4 -10z
m-4070 -10 c0 -5 -4 -10 -9 -10 -6 0 -13 5 -16 10 -3 6 1 10 9 10 9 0 16 -4
16 -10z m2308 -10 c-7 -10 -14 -18 -15 -16 -6 6 9 36 18 36 5 0 4 -9 -3 -20z
m1792 -4 c0 -10 -32 -36 -43 -36 -7 0 -1 9 13 20 26 21 30 23 30 16z m250 0
c0 -2 -7 -7 -16 -10 -8 -3 -12 -2 -9 4 6 10 25 14 25 6z m-2213 -29 c-8 -13
-17 -32 -20 -42 -5 -19 -5 -19 -6 0 0 11 6 31 15 43 20 29 31 29 11 -1z m66
-2 c-3 -9 -8 -14 -10 -11 -3 3 -2 9 2 15 9 16 15 13 8 -4z m2187 10 c0 -2 -10
-9 -22 -15 -22 -11 -22 -10 -4 4 21 17 26 19 26 11z m-410 -9 c0 -2 -7 -7 -16
-10 -8 -3 -12 -2 -9 4 6 10 25 14 25 6z m140 -10 c0 -3 -4 -8 -10 -11 -5 -3
-10 -1 -10 4 0 6 5 11 10 11 6 0 10 -2 10 -4z m80 0 c0 -2 -11 -11 -25 -20
-14 -9 -25 -13 -25 -8 0 5 10 14 23 20 27 13 27 13 27 8z m-195 -26 c-3 -5
-11 -10 -16 -10 -6 0 -7 5 -4 10 3 6 11 10 16 10 6 0 7 -4 4 -10z m285 -24 c0
-2 -7 -7 -16 -10 -8 -3 -12 -2 -9 4 6 10 25 14 25 6z m-2195 -16 c-3 -5 -13
-10 -21 -10 -8 0 -12 5 -9 10 3 6 13 10 21 10 8 0 12 -4 9 -10z m2015 0 c0 -5
-5 -10 -11 -10 -5 0 -7 5 -4 10 3 6 8 10 11 10 2 0 4 -4 4 -10z m-1883 -6 c-3
-3 -12 -4 -19 -1 -8 3 -5 6 6 6 11 1 17 -2 13 -5z m57 -8 c-10 -8 -21 -12 -24
-10 -5 6 21 24 34 24 6 0 1 -6 -10 -14z m1956 -5 c0 -5 -7 -11 -14 -14 -10 -4
-13 -1 -9 9 6 15 23 19 23 5z m-160 -10 c0 -5 -7 -12 -16 -15 -14 -5 -15 -4
-4 9 14 17 20 19 20 6z m-2042 -28 c-1 -10 1 -24 5 -30 5 -7 4 -13 -2 -13 -5
0 -11 6 -14 13 -4 13 3 47 10 47 2 0 3 -8 1 -17z m59 -20 c-3 -10 -5 -4 -5 12
0 17 2 24 5 18 2 -7 2 -21 0 -30z m70 -10 c-3 -10 -5 -2 -5 17 0 19 2 27 5 18
2 -10 2 -26 0 -35z m140 15 c-3 -7 -5 -2 -5 12 0 14 2 19 5 13 2 -7 2 -19 0
-25z m1808 3 c-3 -6 -14 -10 -23 -10 -15 1 -15 2 1 6 9 2 17 9 17 15 0 6 3 9
6 5 3 -3 3 -10 -1 -16z m-2205 -17 c0 -8 -4 -12 -10 -9 -5 3 -10 13 -10 21 0
8 5 12 10 9 6 -3 10 -13 10 -21z m344 -20 c3 -8 2 -12 -4 -9 -6 3 -10 10 -10
16 0 14 7 11 14 -7z m-288 -22 c-18 -16 -18 -16 -6 6 6 13 14 21 18 18 3 -4
-2 -14 -12 -24z m2151 22 c-3 -3 -12 -4 -19 -1 -8 3 -5 6 6 6 11 1 17 -2 13
-5z m-2234 -29 c-3 -9 -8 -14 -10 -11 -3 3 -2 9 2 15 9 16 15 13 8 -4z m2125
-15 c-7 -11 -15 -15 -17 -9 -2 6 3 15 10 20 20 12 21 11 7 -11z m-2147 -33
c-10 -9 -11 -8 -5 6 3 10 9 15 12 12 3 -3 0 -11 -7 -18z m149 -7 c0 -5 -5 -10
-11 -10 -5 0 -7 5 -4 10 3 6 8 10 11 10 2 0 4 -4 4 -10z m2005 -10 c3 -5 1
-10 -4 -10 -6 0 -11 5 -11 10 0 6 2 10 4 10 3 0 8 -4 11 -10z m-1724 -51 c-11
-24 -20 -41 -20 -37 -1 12 31 89 35 85 3 -2 -4 -24 -15 -48z m-304 -1 c-3 -7
-5 -2 -5 12 0 14 2 19 5 13 2 -7 2 -19 0 -25z m2000 26 c-3 -3 -12 -4 -19 -1
-8 3 -5 6 6 6 11 1 17 -2 13 -5z m84 -3 c-12 -8 -51 -4 -51 5 0 2 15 4 33 4
22 0 28 -3 18 -9z m-2158 -16 c-3 -9 -8 -14 -10 -11 -3 3 -2 9 2 15 9 16 15
13 8 -4z m291 -70 c-14 -69 -14 -69 -9 -13 5 52 14 93 20 86 1 -2 -4 -34 -11
-73z m-155 21 c-9 -8 -10 -7 -5 7 3 10 7 24 7 30 1 7 3 4 6 -7 3 -10 -1 -23
-8 -30z m2034 27 c2 -5 1 -19 -3 -33 -6 -24 -7 -24 -11 8 -5 29 4 44 14 25z
m-2186 -75 c-2 -13 -4 -3 -4 22 0 25 2 35 4 23 2 -13 2 -33 0 -45z m78 22 c0
-22 -3 -40 -7 -40 -10 0 -10 42 -2 64 9 23 10 20 9 -24z m2032 -82 c-2 -24 -4
-5 -4 42 0 47 2 66 4 43 2 -24 2 -62 0 -85z m150 75 c-3 -10 -5 -2 -5 17 0 19
2 27 5 18 2 -10 2 -26 0 -35z m-2030 0 c-3 -10 -5 -4 -5 12 0 17 2 24 5 18 2
-7 2 -21 0 -30z m142 -57 c-9 -8 -10 -7 -5 7 3 10 7 28 7 40 2 16 3 14 6 -7 3
-16 -1 -34 -8 -40z m-142 -8 c-3 -7 -5 -2 -5 12 0 14 2 19 5 13 2 -7 2 -19 0
-25z m118 22 c3 -5 2 -10 -4 -10 -5 0 -13 5 -16 10 -3 6 -2 10 4 10 5 0 13 -4
16 -10z m1912 -52 c-2 -13 -4 -3 -4 22 0 25 2 35 4 23 2 -13 2 -33 0 -45z
m-2243 6 c3 -8 2 -12 -4 -9 -6 3 -10 10 -10 16 0 14 7 11 14 -7z m276 -19 c0
-8 -2 -15 -4 -15 -2 0 -6 7 -10 15 -3 8 -1 15 4 15 6 0 10 -7 10 -15z m-56
-84 c-6 -6 -50 44 -58 65 -3 11 9 1 28 -21 19 -22 32 -42 30 -44z m1953 42
c-3 -10 -5 -4 -5 12 0 17 2 24 5 18 2 -7 2 -21 0 -30z m-3994 10 c-7 -2 -19
-2 -25 0 -7 3 -2 5 12 5 14 0 19 -2 13 -5z m2077 -3 c0 -5 -2 -10 -4 -10 -3 0
-8 5 -11 10 -3 6 -1 10 4 10 6 0 11 -4 11 -10z m-185 -29 c-6 -5 -25 10 -25
20 0 5 6 4 14 -3 8 -7 12 -15 11 -17z m265 14 c7 -9 8 -15 2 -15 -5 0 -12 7
-16 15 -3 8 -4 15 -2 15 2 0 9 -7 16 -15z m-339 -12 c13 -16 12 -17 -3 -4 -10
7 -18 15 -18 17 0 8 8 3 21 -13z m168 -38 c-3 -2 -16 10 -29 28 l-23 32 29
-27 c15 -15 26 -30 23 -33z m220 -29 c-1 -17 -2 -16 -9 6 -4 14 -11 32 -15 40
-3 7 1 4 9 -6 9 -11 16 -29 15 -40z m-364 -53 c-3 -23 -11 -46 -17 -49 -8 -5
-9 1 -4 17 4 13 10 49 14 79 5 40 8 47 10 26 2 -17 1 -49 -3 -73z m2104 37 c0
-10 -3 -8 -9 5 -12 27 -12 43 0 25 5 -8 9 -22 9 -30z m-1816 2 c-3 -12 -9 -22
-14 -22 -5 0 -3 11 3 25 13 30 20 28 11 -3z m1897 -9 c0 -7 -4 -13 -10 -13 -5
0 -10 12 -10 28 0 21 2 24 10 12 5 -8 10 -21 10 -27z m-2043 5 c-3 -8 -6 -5
-6 6 -1 11 2 17 5 13 3 -3 4 -12 1 -19z m56 -99 c-4 -4 -6 13 -3 39 l5 47 3
-39 c2 -21 0 -42 -5 -47z m2067 43 c0 -7 -4 -10 -10 -7 -5 3 -10 16 -10 28 0
18 2 19 10 7 5 -8 10 -21 10 -28z m-1918 1 c-3 -16 -7 -22 -10 -15 -4 13 4 42
11 42 2 0 2 -12 -1 -27z m-291 -24 c-5 -13 -10 -19 -10 -12 -1 15 10 45 15 40
3 -2 0 -15 -5 -28z m206 -36 c-5 -32 -12 -61 -16 -66 -4 -4 -3 22 3 58 5 36
12 65 16 65 4 0 3 -26 -3 -57z m73 16 c0 -6 -4 -7 -10 -4 -5 3 -10 11 -10 16
0 6 5 7 10 4 6 -3 10 -11 10 -16z m1765 -9 c-4 -12 -9 -19 -12 -17 -3 3 -2 15
2 27 4 12 9 19 12 17 3 -3 2 -15 -2 -27z m156 7 c-10 -9 -11 -8 -5 6 3 10 9
15 12 12 3 -3 0 -11 -7 -18z m-2290 -87 l-10 -25 0 27 c-1 14 2 35 6 45 7 17
8 17 11 -2 1 -12 -2 -32 -7 -45z m216 28 c-3 -8 -6 -5 -6 6 -1 11 2 17 5 13 3
-3 4 -12 1 -19z m-67 -3 c0 -8 -4 -15 -10 -15 -5 0 -7 7 -4 15 4 8 8 15 10 15
2 0 4 -7 4 -15z m-83 -32 c-3 -10 -5 -4 -5 12 0 17 2 24 5 18 2 -7 2 -21 0
-30z m2177 13 c-5 -13 -34 -31 -34 -21 0 5 30 35 35 35 3 0 2 -6 -1 -14z
m-174 -16 c0 -5 -5 -10 -11 -10 -5 0 -7 5 -4 10 3 6 8 10 11 10 2 0 4 -4 4
-10z m-2013 -42 c-3 -8 -6 -5 -6 6 -1 11 2 17 5 13 3 -3 4 -12 1 -19z m134
-53 c-4 -32 -8 -43 -12 -30 -5 18 8 92 15 84 2 -2 0 -26 -3 -54z m60 32 c-10
-9 -11 -8 -5 6 3 10 9 15 12 12 3 -3 0 -11 -7 -18z m1839 -2 c0 -8 -4 -15 -10
-15 -5 0 -7 7 -4 15 4 8 8 15 10 15 2 0 4 -7 4 -15z m-2103 -32 c-3 -10 -5 -4
-5 12 0 17 2 24 5 18 2 -7 2 -21 0 -30z m130 0 c-3 -10 -5 -4 -5 12 0 17 2 24
5 18 2 -7 2 -21 0 -30z m263 0 c-11 -17 -11 -17 -6 0 3 10 6 24 7 30 0 9 2 9
5 0 3 -7 0 -20 -6 -30z m1757 -5 c-3 -8 -6 -5 -6 6 -1 11 2 17 5 13 3 -3 4
-12 1 -19z m3 -36 c0 -24 -26 -59 -37 -49 -4 5 0 13 10 18 9 6 17 19 17 29 0
11 2 20 5 20 3 0 5 -8 5 -18z m-1743 -24 c-3 -8 -6 -5 -6 6 -1 11 2 17 5 13 3
-3 4 -12 1 -19z m-142 -28 c3 -5 1 -10 -4 -10 -6 0 -11 5 -11 10 0 6 2 10 4
10 3 0 8 -4 11 -10z m125 -5 c0 -12 -19 -12 -23 0 -4 9 -1 12 9 8 7 -3 14 -7
14 -8z m1702 -7 c-12 -12 -42 -20 -42 -12 0 4 38 22 50 23 2 1 -1 -4 -8 -11z
m-1745 -13 c8 -9 13 -18 11 -21 -3 -2 -13 5 -23 16 -21 23 -11 27 12 5z m-202
-33 c-6 -7 -45 19 -45 29 0 5 11 2 24 -8 13 -10 23 -19 21 -21z m50 10 c-7 -8
-35 7 -35 18 0 6 7 6 20 -2 10 -7 17 -14 15 -16z m315 -17 c7 -8 9 -15 6 -15
-4 0 -14 7 -22 15 -9 8 -11 15 -6 15 5 0 15 -7 22 -15z m165 5 c3 -5 2 -10 -4
-10 -5 0 -13 5 -16 10 -3 6 -2 10 4 10 5 0 13 -4 16 -10z m178 -4 c4 -10 1
-13 -9 -9 -15 6 -19 23 -5 23 5 0 11 -7 14 -14z m242 -4 c-3 -3 -11 0 -18 7
-9 10 -8 11 6 5 10 -3 15 -9 12 -12z m365 14 c0 -3 -4 -8 -10 -11 -5 -3 -10
-1 -10 4 0 6 5 11 10 11 6 0 10 -2 10 -4z m60 -6 c0 -5 -2 -10 -4 -10 -3 0 -8
5 -11 10 -3 6 -1 10 4 10 6 0 11 -4 11 -10z m79 -22 c11 -18 28 -44 38 -58 10
-14 3 -10 -16 10 -29 30 -58 80 -47 80 2 0 13 -15 25 -32z m51 22 c0 -5 -4
-10 -10 -10 -5 0 -10 5 -10 10 0 6 5 10 10 10 6 0 10 -4 10 -10z m70 -25 c0
-5 -5 -3 -10 5 -5 8 -10 20 -10 25 0 6 5 3 10 -5 5 -8 10 -19 10 -25z m125 25
c3 -5 1 -10 -4 -10 -6 0 -11 5 -11 10 0 6 2 10 4 10 3 0 8 -4 11 -10z m62 -12
c-3 -8 -6 -5 -6 6 -1 11 2 17 5 13 3 -3 4 -12 1 -19z m66 2 c3 -11 1 -20 -4
-20 -5 0 -9 9 -9 20 0 11 2 20 4 20 2 0 6 -9 9 -20z m-1338 -1 c11 -17 -1 -21
-15 -4 -8 9 -8 15 -2 15 6 0 14 -5 17 -11z m356 -6 c13 -15 12 -15 -8 -4 -24
12 -29 21 -14 21 5 0 15 -7 22 -17z m812 -35 c39 -53 33 -59 -8 -7 -19 24 -35
48 -35 54 0 11 5 5 43 -47z m-1618 32 c3 -5 2 -10 -4 -10 -5 0 -13 5 -16 10
-3 6 -2 10 4 10 5 0 13 -4 16 -10z m181 -12 l19 -23 -25 20 c-14 11 -27 21
-29 22 -2 2 0 3 6 3 5 0 18 -10 29 -22z m338 6 c3 -8 2 -12 -4 -9 -6 3 -10 10
-10 16 0 14 7 11 14 -7z m56 0 c0 -8 -4 -12 -10 -9 -5 3 -10 10 -10 16 0 5 5
9 10 9 6 0 10 -7 10 -16z m-434 -16 l19 -21 -27 18 c-29 18 -34 25 -20 25 5 0
17 -10 28 -22z m747 2 c9 -11 13 -20 7 -20 -5 0 -14 9 -20 20 -6 11 -9 20 -8
20 2 0 11 -9 21 -20z m774 -2 c-3 -8 -6 -5 -6 6 -1 11 2 17 5 13 3 -3 4 -12 1
-19z m-1397 -13 c19 -23 8 -25 -14 -4 -11 11 -15 19 -9 19 6 0 16 -7 23 -15z
m821 -6 c11 -11 18 -23 15 -26 -3 -4 -17 6 -30 20 -29 32 -16 37 15 6z m65 1
c0 -12 -4 -16 -9 -11 -5 5 -6 14 -3 20 10 15 12 14 12 -9z m39 10 c3 -6 -1 -7
-9 -4 -18 7 -21 14 -7 14 6 0 13 -4 16 -10z m75 -10 c9 -16 8 -18 -5 -14 -8 4
-15 12 -15 20 0 20 7 17 20 -6z m235 10 c3 -5 1 -10 -4 -10 -6 0 -11 5 -11 10
0 6 2 10 4 10 3 0 8 -4 11 -10z m256 -23 c12 -22 12 -22 -10 -3 -11 11 -21 23
-21 28 0 14 19 -1 31 -25z m59 0 c0 -5 -4 -5 -10 -2 -5 3 -10 14 -10 23 0 15
2 15 10 2 5 -8 10 -19 10 -23z m-1485 13 c3 -5 1 -10 -4 -10 -6 0 -11 5 -11
10 0 6 2 10 4 10 3 0 8 -4 11 -10z m1059 -6 c9 -24 2 -26 -12 -4 -7 11 -8 20
-3 20 5 0 12 -7 15 -16z m-1304 -16 c0 -6 -6 -5 -15 2 -8 7 -15 14 -15 16 0 2
7 1 15 -2 8 -4 15 -11 15 -16z m275 2 c3 -5 1 -10 -4 -10 -6 0 -11 5 -11 10 0
6 2 10 4 10 3 0 8 -4 11 -10z m1245 -45 c0 -11 -14 7 -31 40 -7 13 -3 12 10
-5 11 -14 21 -29 21 -35z m233 25 c3 -11 1 -18 -4 -14 -5 3 -9 12 -9 20 0 20
7 17 13 -6z m-540 -10 c3 -11 1 -18 -4 -14 -5 3 -9 12 -9 20 0 20 7 17 13 -6z
m-748 0 c3 -5 1 -10 -4 -10 -6 0 -11 5 -11 10 0 6 2 10 4 10 3 0 8 -4 11 -10z
m465 -11 c0 -6 -4 -7 -10 -4 -5 3 -10 11 -10 16 0 6 5 7 10 4 6 -3 10 -11 10
-16z m355 -13 c9 -19 15 -45 12 -58 -4 -19 -5 -18 -6 7 -1 17 -8 39 -16 49 -8
11 -15 23 -15 28 0 17 10 7 25 -26z m311 -21 c4 -20 3 -27 -3 -20 -6 6 -14 24
-17 40 -5 20 -4 27 3 20 5 -5 13 -23 17 -40z m-238 -39 l-1 -41 -4 43 c-2 23
-8 42 -14 42 -5 0 -9 8 -9 18 1 15 2 15 15 -2 9 -11 14 -38 13 -60z m-364 48
c3 -8 2 -12 -4 -9 -6 3 -10 10 -10 16 0 14 7 11 14 -7z m64 -9 c-3 -3 -9 2
-12 12 -6 14 -5 15 5 6 7 -7 10 -15 7 -18z m362 -6 c0 -6 -4 -7 -10 -4 -5 3
-10 11 -10 16 0 6 5 7 10 4 6 -3 10 -11 10 -16z m-500 -499 c0 -280 3 -516 6
-524 6 -15 -88 -16 -1040 -14 l-1046 3 0 510 c0 281 0 516 0 523 0 10 201 12
1040 11 l1040 -1 0 -508z m930 477 c0 -5 -4 -5 -10 -2 -5 3 -10 14 -10 23 0
15 2 15 10 2 5 -8 10 -19 10 -23z m-313 -29 c-2 -13 -4 -5 -4 17 -1 22 1 32 4
23 2 -10 2 -28 0 -40z m-360 20 c-3 -8 -6 -5 -6 6 -1 11 2 17 5 13 3 -3 4 -12
1 -19z m548 -18 c-9 -41 -17 -33 -9 9 4 17 9 30 11 27 3 -2 2 -19 -2 -36z
m-248 -2 c-3 -8 -6 -5 -6 6 -1 11 2 17 5 13 3 -3 4 -12 1 -19z m313 -13 c0 -5
-5 -3 -10 5 -5 8 -10 20 -10 25 0 6 5 3 10 -5 5 -8 10 -19 10 -25z m-138 -17
c-6 -6 -7 0 -4 19 5 21 7 23 10 9 2 -10 0 -22 -6 -28z m179 -11 c-10 -9 -11
-8 -5 6 3 10 9 15 12 12 3 -3 0 -11 -7 -18z m-3580 -794 c13 -16 12 -17 -3 -4
-10 7 -18 15 -18 17 0 8 8 3 21 -13z m2732 -330 c-7 -2 -19 -2 -25 0 -7 3 -2
5 12 5 14 0 19 -2 13 -5z m-1816 -139 c-3 -3 -12 -4 -19 -1 -8 3 -5 6 6 6 11
1 17 -2 13 -5z m1088 -74 c-3 -5 -21 -10 -38 -9 -31 1 -31 1 -7 9 36 11 52 11
45 0z"/>
<path d="M1107 4283 c51 -2 135 -2 186 0 50 1 9 3 -93 3 -102 0 -143 -2 -93
-3z"/>
<path d="M1020 4245 c0 -13 24 -15 182 -13 134 2 182 6 186 16 3 9 -38 12
-182 12 -160 0 -186 -2 -186 -15z"/>
<path d="M1020 4205 c0 -13 26 -15 186 -15 144 0 185 3 182 13 -4 9 -52 13
-186 15 -158 2 -182 0 -182 -13z"/>
<path d="M1030 4169 c0 -5 79 -9 175 -9 115 0 175 4 175 10 0 7 -59 10 -175 9
-96 -1 -175 -5 -175 -10z"/>
<path d="M1107 4123 c51 -2 135 -2 186 0 50 1 9 3 -93 3 -102 0 -143 -2 -93
-3z"/>
<path d="M1020 4065 c0 -13 26 -15 186 -15 144 0 185 3 182 13 -4 9 -52 13
-186 15 -158 2 -182 0 -182 -13z"/>
<path d="M1020 4015 c0 -13 27 -14 182 -12 134 1 182 5 186 15 3 9 -38 12
-182 12 -158 0 -186 -2 -186 -15z"/>
<path d="M1107 3963 c51 -2 135 -2 186 0 50 1 9 3 -93 3 -102 0 -143 -2 -93
-3z"/>
<path d="M1022 3945 c8 -9 358 -11 358 -2 0 4 -82 7 -182 7 -100 0 -179 -2
-176 -5z"/>
<path d="M1107 3913 c51 -2 135 -2 186 0 50 1 9 3 -93 3 -102 0 -143 -2 -93
-3z"/>
<path d="M1020 3875 c0 -13 24 -15 182 -13 134 2 182 6 186 16 3 9 -38 12
-182 12 -160 0 -186 -2 -186 -15z"/>
<path d="M1020 3835 c0 -13 23 -15 180 -13 243 4 245 22 3 26 -160 2 -183 0
-183 -13z"/>
<path d="M1107 3783 c51 -2 135 -2 186 0 50 1 9 3 -93 3 -102 0 -143 -2 -93
-3z"/>
<path d="M1107 3753 c51 -2 135 -2 186 0 50 1 9 3 -93 3 -102 0 -143 -2 -93
-3z"/>
<path d="M1023 3728 c-2 -5 77 -8 176 -8 100 0 181 3 181 8 0 10 -350 9 -357
0z"/>
<path d="M1020 3695 c0 -13 23 -15 180 -13 243 4 245 22 3 26 -160 2 -183 0
-183 -13z"/>
<path d="M1022 3648 c6 -19 359 -19 365 0 4 9 -37 12 -182 12 -145 0 -186 -3
-183 -12z"/>
<path d="M1107 3593 c51 -2 135 -2 186 0 50 1 9 3 -93 3 -102 0 -143 -2 -93
-3z"/>
<path d="M1022 3575 c8 -9 358 -11 358 -2 0 4 -82 7 -182 7 -100 0 -179 -2
-176 -5z"/>
<path d="M1108 3543 c46 -2 118 -2 160 0 42 1 5 3 -83 3 -88 0 -123 -2 -77 -3z"/>
<path d="M1358 3543 c7 -3 16 -2 19 1 4 3 -2 6 -13 5 -11 0 -14 -3 -6 -6z"/>
<path d="M1020 3510 c0 -6 68 -10 185 -10 117 0 185 4 185 10 0 6 -68 10 -185
10 -117 0 -185 -4 -185 -10z"/>
<path d="M1020 3465 c0 -13 24 -15 182 -13 134 2 182 6 186 16 3 9 -38 12
-182 12 -160 0 -186 -2 -186 -15z"/>
<path d="M1107 3413 c51 -2 135 -2 186 0 50 1 9 3 -93 3 -102 0 -143 -2 -93
-3z"/>
<path d="M1107 3383 c51 -2 135 -2 186 0 50 1 9 3 -93 3 -102 0 -143 -2 -93
-3z"/>
<path d="M1138 3363 c45 -2 119 -2 165 0 45 1 8 3 -83 3 -91 0 -128 -2 -82 -3z"/>
<path d="M1020 3325 c0 -13 24 -15 182 -13 134 2 182 6 186 16 3 9 -38 12
-182 12 -160 0 -186 -2 -186 -15z"/>
<path d="M1020 3285 c0 -13 25 -15 186 -15 144 0 185 3 182 13 -4 9 -52 13
-186 15 -159 3 -182 1 -182 -13z"/>
<path d="M1107 3223 c51 -2 135 -2 186 0 50 1 9 3 -93 3 -102 0 -143 -2 -93
-3z"/>
<path d="M1348 3203 c6 -2 18 -2 25 0 6 3 1 5 -13 5 -14 0 -19 -2 -12 -5z"/>
<path d="M1020 3145 c0 -13 26 -15 186 -15 144 0 185 3 182 13 -4 9 -52 13
-186 15 -158 2 -182 0 -182 -13z"/>
<path d="M1020 3095 c0 -13 24 -15 182 -13 134 2 182 6 186 16 3 9 -38 12
-182 12 -160 0 -186 -2 -186 -15z"/>
<path d="M1107 3043 c51 -2 135 -2 186 0 50 1 9 3 -93 3 -102 0 -143 -2 -93
-3z"/>
<path d="M1107 3013 c51 -2 135 -2 186 0 50 1 9 3 -93 3 -102 0 -143 -2 -93
-3z"/>
<path d="M1107 2993 c51 -2 135 -2 186 0 50 1 9 3 -93 3 -102 0 -143 -2 -93
-3z"/>
<path d="M1020 2955 c0 -13 24 -15 182 -13 134 2 182 6 186 16 3 9 -38 12
-182 12 -160 0 -186 -2 -186 -15z"/>
<path d="M1020 2915 c0 -13 26 -15 186 -15 144 0 185 3 182 13 -4 9 -52 13
-186 15 -158 2 -182 0 -182 -13z"/>
<path d="M1107 2833 c51 -2 135 -2 186 0 50 1 9 3 -93 3 -102 0 -143 -2 -93
-3z"/>
<path d="M1107 2803 c51 -2 135 -2 186 0 50 1 9 3 -93 3 -102 0 -143 -2 -93
-3z"/>
<path d="M1020 2775 c0 -13 26 -15 186 -15 144 0 185 3 182 13 -4 9 -52 13
-186 15 -158 2 -182 0 -182 -13z"/>
<path d="M1020 2730 c0 -6 68 -10 185 -10 117 0 185 4 185 10 0 6 -68 10 -185
10 -117 0 -185 -4 -185 -10z"/>
<path d="M1107 2673 c51 -2 135 -2 186 0 50 1 9 3 -93 3 -102 0 -143 -2 -93
-3z"/>
<path d="M1023 2648 c-2 -5 77 -8 176 -8 100 0 181 3 181 8 0 4 -79 7 -176 7
-97 0 -178 -3 -181 -7z"/>
<path d="M1020 2615 c0 -13 27 -15 185 -15 158 0 185 2 185 15 0 13 -27 15
-185 15 -158 0 -185 -2 -185 -15z"/>
<path d="M1198 2582 c-108 -1 -178 -6 -178 -12 0 -6 71 -10 185 -10 109 0 185
4 185 9 0 16 -7 16 -192 13z"/>
<path d="M1107 2533 c51 -2 135 -2 186 0 50 1 9 3 -93 3 -102 0 -143 -2 -93
-3z"/>
<path d="M1107 2503 c51 -2 135 -2 186 0 50 1 9 3 -93 3 -102 0 -143 -2 -93
-3z"/>
<path d="M1107 2463 c51 -2 135 -2 186 0 50 1 9 3 -93 3 -102 0 -143 -2 -93
-3z"/>
<path d="M1020 2430 c0 -6 68 -10 185 -10 117 0 185 4 185 10 0 6 -68 10 -185
10 -117 0 -185 -4 -185 -10z"/>
<path d="M1107 2393 c51 -2 135 -2 186 0 50 1 9 3 -93 3 -102 0 -143 -2 -93
-3z"/>
<path d="M1020 2315 c0 -13 23 -15 180 -13 243 4 245 22 3 26 -160 2 -183 0
-183 -13z"/>
<path d="M1138 2283 c12 -2 32 -2 45 0 12 2 2 4 -23 4 -25 0 -35 -2 -22 -4z"/>
<path d="M1258 2283 c12 -2 32 -2 45 0 12 2 2 4 -23 4 -25 0 -35 -2 -22 -4z"/>
<path d="M1107 2253 c51 -2 135 -2 186 0 50 1 9 3 -93 3 -102 0 -143 -2 -93
-3z"/>
<path d="M1022 2214 c9 -8 358 -10 358 -1 0 4 -82 7 -182 7 -100 0 -179 -3
-176 -6z"/>
<path d="M1107 2183 c51 -2 135 -2 186 0 50 1 9 3 -93 3 -102 0 -143 -2 -93
-3z"/>
<path d="M1020 2150 c0 -6 68 -10 185 -10 117 0 185 4 185 10 0 6 -68 10 -185
10 -117 0 -185 -4 -185 -10z"/>
<path d="M1020 2105 c0 -13 24 -15 182 -13 134 2 182 6 186 16 3 9 -38 12
-182 12 -160 0 -186 -2 -186 -15z"/>
<path d="M1107 2073 c51 -2 135 -2 186 0 50 1 9 3 -93 3 -102 0 -143 -2 -93
-3z"/>
<path d="M1107 2043 c51 -2 135 -2 186 0 50 1 9 3 -93 3 -102 0 -143 -2 -93
-3z"/>
<path d="M1020 2010 c0 -6 68 -10 185 -10 117 0 185 4 185 10 0 6 -68 10 -185
10 -117 0 -185 -4 -185 -10z"/>
<path d="M1020 1945 c0 -13 24 -15 182 -13 134 2 182 6 186 16 3 9 -38 12
-182 12 -160 0 -186 -2 -186 -15z"/>
<path d="M1107 1913 c51 -2 135 -2 186 0 50 1 9 3 -93 3 -102 0 -143 -2 -93
-3z"/>
<path d="M1020 1875 c0 -13 24 -15 182 -13 134 2 182 6 186 16 3 9 -38 12
-182 12 -160 0 -186 -2 -186 -15z"/>
<path d="M1107 1843 c51 -2 135 -2 186 0 50 1 9 3 -93 3 -102 0 -143 -2 -93
-3z"/>
<path d="M1107 1813 c51 -2 135 -2 186 0 50 1 9 3 -93 3 -102 0 -143 -2 -93
-3z"/>
<path d="M1107 1773 c51 -2 135 -2 186 0 50 1 9 3 -93 3 -102 0 -143 -2 -93
-3z"/>
<path d="M1020 1735 c0 -13 24 -15 182 -13 134 2 182 6 186 16 3 9 -38 12
-182 12 -160 0 -186 -2 -186 -15z"/>
<path d="M1107 1703 c51 -2 135 -2 186 0 50 1 9 3 -93 3 -102 0 -143 -2 -93
-3z"/>
<path d="M1020 1665 c0 -13 24 -15 182 -13 134 2 182 6 186 16 3 9 -38 12
-182 12 -160 0 -186 -2 -186 -15z"/>
<path d="M1020 1625 c0 -13 26 -15 186 -15 144 0 185 3 182 13 -4 9 -52 13
-186 15 -158 2 -182 0 -182 -13z"/>
<path d="M1107 1583 c51 -2 135 -2 186 0 50 1 9 3 -93 3 -102 0 -143 -2 -93
-3z"/>
<path d="M1107 1543 c51 -2 135 -2 186 0 50 1 9 3 -93 3 -102 0 -143 -2 -93
-3z"/>
<path d="M2120 1331 c-11 -37 -20 -73 -20 -78 0 -28 -37 -38 -153 -43 l-120
-5 -13 -45 c-8 -25 -14 -46 -14 -47 0 -2 96 -3 213 -3 213 0 213 0 267 28 30
15 63 39 73 53 21 29 77 190 70 202 -2 4 -67 7 -143 7 l-139 0 -21 -69z"/>
<path d="M2590 1208 c0 -4 -90 -317 -106 -370 -5 -16 5 -18 107 -18 93 0 120
4 153 20 76 38 129 142 130 257 1 45 -3 57 -27 80 -26 27 -32 28 -142 31 -63
2 -115 2 -115 0z m190 -87 c31 -20 5 -148 -40 -193 -25 -25 -36 -28 -89 -28
-70 0 -69 -1 -42 85 10 33 24 79 30 103 l12 42 57 0 c31 0 64 -4 72 -9z"/>
<path d="M3035 1196 c-61 -27 -78 -57 -121 -209 -14 -51 -27 -100 -30 -109 -3
-9 4 -26 15 -37 18 -18 34 -21 111 -21 118 0 142 12 169 85 12 31 22 70 24 88
l2 32 -64 -1 c-50 -1 -67 -5 -78 -20 -20 -27 -16 -32 21 -36 l34 -3 -13 -32
c-14 -32 -16 -33 -73 -33 l-60 0 29 98 c36 122 46 132 144 132 77 0 89 6 100
53 l7 27 -93 0 c-56 -1 -106 -6 -124 -14z"/>
<path d="M3305 1185 c-42 -41 -34 -55 35 -55 33 0 60 -3 60 -6 0 -6 -79 -270
-87 -291 -4 -9 8 -13 40 -13 l44 0 44 155 44 155 57 0 c48 0 58 3 62 20 3 11
9 29 12 40 5 19 1 20 -141 20 -142 0 -147 -1 -170 -25z"/>
<path d="M1776 1033 c-3 -16 -8 -38 -12 -50 l-6 -23 334 0 335 0 11 39 c7 21
12 43 12 50 0 8 -92 11 -334 11 l-333 0 -7 -27z"/>
<path d="M1966 908 c-22 -6 -57 -28 -81 -52 -36 -34 -47 -55 -69 -127 -14 -47
-26 -88 -26 -92 0 -4 65 -7 144 -7 l144 0 18 73 c29 110 39 117 177 117 l114
0 11 39 c7 21 12 43 12 50 0 14 -388 13 -444 -1z"/>
</g>
</svg>
